<svg width="33" height="32" viewBox="0 0 33 32" fill="none" xmlns="http://www.w3.org/2000/svg">
<path fill-rule="evenodd" clip-rule="evenodd" d="M16.7583 32C25.5949 32 32.7583 24.8366 32.7583 16C32.7583 7.16344 25.5949 0 16.7583 0C7.92174 0 0.758301 7.16344 0.758301 16C0.758301 24.8366 7.92174 32 16.7583 32ZM22.4561 12.6454L23.7834 15.6108L25.139 12.6454L28.0761 11.3181L25.139 9.96249L23.7834 7.02539L22.4561 9.96249L19.4907 11.3181L22.4561 12.6454ZM12.0759 11.7076L11.2313 9.82052L9.34424 8.97585L11.2313 8.1132L12.0759 6.24414L12.9386 8.1132L14.8077 8.97585L12.9386 9.82052L12.0759 11.7076ZM20.1952 20.1843L17.5309 17.6172L17.6704 25.1189C17.6783 25.5466 17.5451 25.9029 17.2706 26.1878C16.9962 26.4726 16.6451 26.6191 16.2173 26.627C15.7896 26.635 15.4333 26.5017 15.1484 26.2272C14.8636 25.9528 14.7172 25.6017 14.7092 25.174L14.5697 17.6723L12.0026 20.3366C11.712 20.6383 11.3693 20.7927 10.9745 20.8001C10.5796 20.8074 10.2314 20.6658 9.92978 20.3752C9.62816 20.0846 9.47367 19.7418 9.46633 19.347C9.45899 18.9522 9.60062 18.604 9.89123 18.3023L14.9285 13.0742C15.2191 12.7725 15.5618 12.618 15.9567 12.6107C16.3515 12.6034 16.6997 12.745 17.0013 13.0356L22.2295 18.0729C22.5312 18.3635 22.6856 18.7062 22.693 19.101C22.7003 19.4959 22.5587 19.8441 22.2681 20.1457C21.9775 20.4473 21.6348 20.6018 21.2399 20.6092C20.8451 20.6165 20.4969 20.4749 20.1952 20.1843Z" fill="#4644B2"/>
</svg>
