<svg width="24" height="24" viewBox="0 0 24 24" fill="none" xmlns="http://www.w3.org/2000/svg">
<g clip-path="url(#clip0_1841_37982)">
<mask id="mask0_1841_37982" style="mask-type:luminance" maskUnits="userSpaceOnUse" x="0" y="0" width="24" height="24">
<path d="M24 0H0V24H24V0Z" fill="white"/>
</mask>
<g mask="url(#mask0_1841_37982)">
<path d="M23.9971 23.9963L24.0031 23.9953V15.1933C24.0031 10.8873 23.0761 7.57031 18.0421 7.57031C15.6222 7.57031 13.9982 8.89831 13.3352 10.1573H13.2652V7.97231H8.49219V23.9953H13.4622V16.0613C13.4622 13.9723 13.8582 11.9523 16.4452 11.9523C18.9942 11.9523 19.0321 14.3363 19.0321 16.1953V23.9963H23.9971Z" fill="black" fill-opacity="0.87"/>
<path d="M0.398438 7.97656H5.37444V23.9996H0.398438V7.97656Z" fill="black" fill-opacity="0.87"/>
<path d="M2.88199 0C1.291 0 0 1.291 0 2.88199C0 4.473 1.291 5.79101 2.88199 5.79101C4.473 5.79101 5.764 4.473 5.764 2.88199C5.763 1.291 4.47199 0 2.88199 0Z" fill="black" fill-opacity="0.87"/>
</g>
</g>
<defs>
<clipPath id="clip0_1841_37982">
<rect width="24" height="24" fill="white"/>
</clipPath>
</defs>
</svg>
