<svg width="25" height="24" viewBox="0 0 25 24" fill="none" xmlns="http://www.w3.org/2000/svg">
<g clip-path="url(#clip0_1841_37978)">
<path fill-rule="evenodd" clip-rule="evenodd" d="M12.4628 0C5.57117 0 0 5.5 0 12.3042C0 17.7432 3.56964 22.3472 8.52168 23.9767C9.14082 24.0992 9.3676 23.712 9.3676 23.3862C9.3676 23.101 9.34719 22.1232 9.34719 21.1045C5.88036 21.838 5.15842 19.6378 5.15842 19.6378C4.60128 18.2118 3.77577 17.8452 3.77577 17.8452C2.64107 17.0915 3.85842 17.0915 3.85842 17.0915C5.11709 17.173 5.77755 18.3545 5.77755 18.3545C6.89158 20.2285 8.68673 19.699 9.40893 19.373C9.51199 18.5785 9.84235 18.0285 10.1931 17.723C7.42806 17.4377 4.51888 16.3785 4.51888 11.6523C4.51888 10.3078 5.01378 9.20775 5.79796 8.35225C5.67423 8.04675 5.24082 6.7835 5.92194 5.09275C5.92194 5.09275 6.97423 4.76675 9.34694 6.35575C10.3628 6.08642 11.4104 5.9494 12.4628 5.94825C13.5151 5.94825 14.5878 6.091 15.5783 6.35575C17.9513 4.76675 19.0036 5.09275 19.0036 5.09275C19.6847 6.7835 19.251 8.04675 19.1273 8.35225C19.9321 9.20775 20.4066 10.3078 20.4066 11.6523C20.4066 16.3785 17.4974 17.4172 14.7117 17.723C15.1658 18.11 15.5577 18.8433 15.5577 20.0045C15.5577 21.6545 15.5372 22.9788 15.5372 23.386C15.5372 23.712 15.7643 24.0992 16.3832 23.977C21.3352 22.347 24.9048 17.7432 24.9048 12.3042C24.9253 5.5 19.3337 0 12.4628 0Z" fill="#24292F"/>
</g>
<defs>
<clipPath id="clip0_1841_37978">
<rect width="25" height="24" fill="white"/>
</clipPath>
</defs>
</svg>
